<?xml version="1.0" encoding="utf-8"?>
<!-- Generator: Adobe Illustrator 21.0.0, SVG Export Plug-In . SVG Version: 6.00 Build 0)  -->
<svg version="1.1"
	 id="svg2" inkscape:export-filename="/home/ben/Projects/GrpugWebsite_ve/grpug_django/common/images/python-logo-outline-320.png" inkscape:export-xdpi="251.75" inkscape:export-ydpi="251.75" inkscape:version="0.48.2 r9819" sodipodi:docname="python-logo-outline.svg" sodipodi:version="0.32" xmlns:cc="http://creativecommons.org/ns#" xmlns:dc="http://purl.org/dc/elements/1.1/" xmlns:inkscape="http://www.inkscape.org/namespaces/inkscape" xmlns:rdf="http://www.w3.org/1999/02/22-rdf-syntax-ns#" xmlns:sodipodi="http://sodipodi.sourceforge.net/DTD/sodipodi-0.dtd" xmlns:svg="http://www.w3.org/2000/svg"
	 xmlns="http://www.w3.org/2000/svg" xmlns:xlink="http://www.w3.org/1999/xlink" x="0px" y="0px" viewBox="0 0 120.4 120.4"
	 style="enable-background:new 0 0 120.4 120.4;" xml:space="preserve">
<style type="text/css">
	.st0{fill:url(#SVGID_1_);}
	.st1{fill:url(#SVGID_2_);}
</style>
<sodipodi:namedview  bordercolor="#666666" borderopacity="1.0" fit-margin-bottom="0" fit-margin-left="0" fit-margin-right="0" fit-margin-top="0" gridtolerance="10.0" guidetolerance="10.0" height="40mm" id="base" inkscape:current-layer="svg2" inkscape:cx="-15.512344" inkscape:cy="43.499123" inkscape:pageopacity="0.0" inkscape:pageshadow="2" inkscape:window-height="815" inkscape:window-maximized="0" inkscape:window-width="1233" inkscape:window-x="0" inkscape:window-y="30" inkscape:zoom="1" objecttolerance="10.0" pagecolor="#ffffff" showgrid="false" units="mm" width="210mm">
	</sodipodi:namedview>
<g id="g3789" transform="matrix(1.0110403,0,0,1,-4.6470112,-5.350983)" inkscape:export-filename="/home/ben/Projects/GrpugWebsite_ve/grpug_django/common/images/python-logo-outline-75.png" inkscape:export-xdpi="59" inkscape:export-ydpi="59">
	<g id="path1948" inkscape:connector-curvature="0">
		<linearGradient id="SVGID_1_" gradientUnits="userSpaceOnUse" x1="4.5963" y1="50.8983" x2="95.7932" y2="50.8983">
			<stop  offset="0" style="stop-color:#F68B1F"/>
			<stop  offset="1" style="stop-color:#EB5A24"/>
		</linearGradient>
		<path class="st0" d="M63.9,9.4c4.5,0,9.1,0.4,13.6,1.1c7.3,1.2,13.4,6.7,13.4,13.9v25.5c0,7.5-6,13.6-13.4,13.6H50.7
			c-9.1,0-16.8,7.8-16.8,16.7v12.3h-9.2c-7.8,0-12.3-5.7-14.3-13.6c-2.6-10.7-2.5-17,0-27.3c2.1-8.9,9-13.6,16.8-13.6h10.1h26.8
			v-3.4H37.2V24.4c0-7.7,2.1-11.9,13.4-13.9c3.9-0.7,8.2-1.1,12.8-1.1C63.6,9.4,63.7,9.4,63.9,9.4 M49,27.8c2.8,0,5-2.3,5-5.1
			c0-2.8-2.3-5.1-5-5.1c-2.8,0-5,2.3-5,5.1C43.9,25.5,46.2,27.8,49,27.8 M63.9,5.4l-0.4,0c-4.7,0-9.3,0.4-13.5,1.2
			c-12,2.1-16.7,7.1-16.7,17.9V34h-6.1C17.1,34,9,40.5,6.6,50.7c-2.7,11-2.7,18.1,0,29.1c2.5,10.6,9.1,16.6,18.1,16.6h9.2h4v-4V80.2
			c0-6.7,6-12.7,12.8-12.7h26.8c9.6,0,17.4-7.9,17.4-17.6V24.4c0-8.7-7-16.3-16.7-17.9C73.5,5.7,68.7,5.4,63.9,5.4L63.9,5.4z
			 M49,23.8c-0.6,0-1.1-0.5-1.1-1.1c0-0.6,0.5-1.1,1.1-1.1c0.6,0,1.1,0.5,1.1,1.1C50,23.3,49.6,23.8,49,23.8L49,23.8z"/>
	</g>
	<g id="path1950" inkscape:connector-curvature="0">
		<linearGradient id="SVGID_2_" gradientUnits="userSpaceOnUse" x1="33.2909" y1="79.8741" x2="124.6572" y2="79.8741">
			<stop  offset="0" style="stop-color:#F68B1F"/>
			<stop  offset="1" style="stop-color:#EB5A24"/>
		</linearGradient>
		<path class="st1" d="M104.2,38c7.8,0,11.5,5.8,13.4,13.6c2.7,10.8,2.8,18.9,0,27.3c-2.7,8.2-5.6,13.6-13.4,13.6H90.8H64.1v3.4
			h26.8v10.2c0,7.7-6.7,11.7-13.4,13.6c-4.9,1.4-9.3,2-13.5,2c-4.6,0-8.9-0.7-13.3-2c-7.1-2.1-13.4-6.4-13.4-13.6V80.5
			c0-7.3,6.1-13.6,13.4-13.6h26.8c8.9,0,16.7-7.8,16.7-17V38C94.2,38,104.2,38,104.2,38 M79.1,112.9c2.8,0,5-2.3,5-5.1
			c0-2.8-2.3-5.1-5-5.1c-2.8,0-5,2.3-5,5.1C74.1,110.6,76.4,112.9,79.1,112.9 M104.2,34h-5h-3.5c-2.3,0-3.2,0-4.4,1.2l-1.2,1.2V38
			v11.9c0,6.9-6,13-12.8,13H50.7c-9.4,0-17.4,8.1-17.4,17.6v25.5c0,8.1,5.9,14.4,16.3,17.5c5,1.5,9.8,2.2,14.4,2.2
			c4.7,0,9.5-0.7,14.6-2.2c14.2-4.1,16.3-12.7,16.3-17.5v-9.6h9.4c10.8,0,14.5-8.4,17.2-16.3c3-8.9,3-17.8,0.1-29.5
			C118.8,39.6,113,34,104.2,34L104.2,34z M79.1,108.9c-0.6,0-1.1-0.5-1.1-1.1c0-0.6,0.5-1.1,1.1-1.1c0.6,0,1.1,0.5,1.1,1.1
			C80.2,108.4,79.7,108.9,79.1,108.9L79.1,108.9z"/>
	</g>
</g>
</svg>
